Coordinates
version=1
nRows=20
nColumns=30
inDegrees=yes

Units are S.I. units (second, meters, Newtons, ...)
Angles are in degrees.

endheader
time	floatyaw	floatroll	floatpitch	floatx	floaty	floatz	pro_sup_l	deviation_l	flexion_l	cmc_flexion_l	cmc_abduction_l	mp_flexion_l	ip_flexion_l	2mcp_flexion_l	2mcp_abduction_l	2pm_flexion_l	2md_flexion_l	3mcp_flexion_l	3mcp_abduction_l	3pm_flexion_l	3md_flexion_l	4mcp_flexion_l	4mcp_abduction_l	4pm_flexion_l	4md_flexion_l	5mcp_flexion_l	5mcp_abduction_l	5pm_flexion_l	5md_flexion_l
-0.995000	-160.147433	-5.066637	-73.570646	0.082378	-0.182625	-0.014909	98.956267	4.543734	0.148339	16.054902	11.197858	-25.761606	-42.594120	28.230653	6.374834	43.648800	29.466073	24.529800	3.946764	43.255463	28.084000	13.219752	-4.105994	50.944880	34.674904	1.132094	-7.677849	60.048028	41.484850
-0.985000	-160.147433	-5.066637	-73.570646	0.082380	-0.182623	-0.014913	98.956546	4.542282	0.150101	16.043463	11.156194	-25.796017	-42.648812	28.246577	6.376959	43.643898	29.452821	24.534241	3.946558	43.254367	28.074982	13.216944	-4.109571	50.948901	34.668562	1.131255	-7.678090	60.043174	41.475213
-0.975000	-160.147433	-5.066637	-73.570646	0.082379	-0.182623	-0.014917	98.949438	4.537103	0.147921	16.037251	11.148769	-25.833930	-42.723196	28.273183	6.375540	43.654451	29.445716	24.547461	3.947304	43.253538	28.066300	13.218304	-4.116445	50.961750	34.668397	1.140087	-7.683144	60.034163	41.458227
-0.965000	-160.147433	-5.066637	-73.570646	0.082376	-0.182623	-0.014921	98.936086	4.529773	0.143805	16.032895	11.176277	-25.864409	-42.792448	28.304008	6.370491	43.677998	29.446899	24.563824	3.948486	43.256081	28.062447	13.222721	-4.125108	50.980785	34.673668	1.156397	-7.691350	60.020933	41.436796
-0.955000	-160.147433	-5.066637	-73.570646	0.082374	-0.182623	-0.014923	98.919579	4.522130	0.139703	16.027497	11.226286	-25.881909	-42.838412	28.333281	6.363964	43.705794	29.454525	24.577954	3.949575	43.263603	28.065946	13.227817	-4.133434	51.002777	34.682768	1.175571	-7.700225	60.005324	41.415731
-0.945000	-160.147433	-5.066637	-73.570646	0.082371	-0.182623	-0.014924	98.903688	4.515419	0.136266	16.019530	11.280201	-25.887639	-42.856532	28.358793	6.359925	43.726137	29.462732	24.587366	3.950393	43.275745	28.075869	13.231589	-4.139385	51.024939	34.693508	1.193729	-7.707700	59.990277	41.399468
-0.935000	-160.147433	-5.066637	-73.570646	0.082368	-0.182624	-0.014924	98.891456	4.510073	0.132693	16.008584	11.321922	-25.887353	-42.855007	28.381875	6.362346	43.729681	29.464535	24.593163	3.951193	43.290546	28.088393	13.233638	-4.141659	51.045217	34.703486	1.209702	-7.712995	59.978892	41.390173
-0.925000	-160.147433	-5.066637	-73.570646	0.082365	-0.182628	-0.014925	98.884482	4.506148	0.127661	15.994698	11.343604	-25.887527	-42.847860	28.404845	6.372950	43.714337	29.456139	24.598505	3.952399	43.305586	28.099076	13.235307	-4.140013	51.061929	34.710450	1.224787	-7.716637	59.973433	41.387030
-0.915000	-160.147433	-5.066637	-73.570646	0.082362	-0.182634	-0.014927	98.883176	4.503935	0.120506	15.978099	11.346533	-25.892386	-42.846710	28.427992	6.389988	43.687329	29.439962	24.606129	3.954261	43.319183	28.105250	13.238747	-4.135198	51.073531	34.712740	1.240911	-7.719722	59.974421	41.386919
-0.905000	-160.147433	-5.066637	-73.570646	0.082358	-0.182640	-0.014930	98.887253	4.504078	0.111822	15.959194	11.338368	-25.902948	-42.855625	28.448336	6.408870	43.663012	29.424295	24.616663	3.956662	43.330779	28.107005	13.245478	-4.128668	51.079068	34.709871	1.258612	-7.722996	59.980324	41.386194
-0.895000	-160.147433	-5.066637	-73.570646	0.082356	-0.182643	-0.014932	98.895469	4.506915	0.103274	15.938123	11.329342	-25.917659	-42.870637	28.460975	6.424270	43.657028	29.419543	24.628511	3.959159	43.340449	28.106466	13.255176	-4.122177	51.078991	34.703050	1.275898	-7.726436	59.988415	41.382876
-0.885000	-160.147433	-5.066637	-73.570646	0.082355	-0.182641	-0.014934	98.904657	4.511445	0.097031	15.913905	11.329192	-25.933679	-42.883148	28.462112	6.432462	43.679176	29.432944	24.638875	3.961174	43.348227	28.106270	13.265338	-4.117304	51.075424	34.695126	1.288360	-7.729542	59.996504	41.378198
-0.875000	-160.147433	-5.066637	-73.570646	0.082355	-0.182636	-0.014936	98.909395	4.514918	0.095121	15.884139	11.344897	-25.948201	-42.885253	28.451929	6.432632	43.728454	29.464516	24.645097	3.962207	43.353915	28.108209	13.272170	-4.114965	51.071294	34.689593	1.290607	-7.731976	60.004345	41.376363
-0.865000	-160.147433	-5.066637	-73.570646	0.082357	-0.182627	-0.014938	98.903714	4.513775	0.098811	15.846093	11.378640	-25.959444	-42.874432	28.435401	6.426681	43.793018	29.506515	24.645761	3.962035	43.357271	28.112580	13.272388	-4.115088	51.068829	34.689029	1.278650	-7.733972	60.013551	41.382284
-0.855000	-160.147433	-5.066637	-73.570646	0.082358	-0.182618	-0.014942	98.884618	4.505779	0.108113	15.798853	11.426018	-25.966881	-42.855088	28.420142	6.417928	43.855433	29.546908	24.641173	3.960849	43.358073	28.118271	13.264920	-4.116680	51.068509	34.693883	1.252282	-7.736168	60.026029	41.398473
-0.845000	-160.147433	-5.066637	-73.570646	0.082360	-0.182610	-0.014946	98.855251	4.492012	0.121602	15.745123	11.475895	-25.970714	-42.836048	28.412386	6.409587	43.900549	29.575040	24.633054	3.959299	43.355860	28.123415	13.251493	-4.118315	51.069203	34.702398	1.216136	-7.738988	60.042108	41.423024
-0.835000	-160.147433	-5.066637	-73.570646	0.082362	-0.182603	-0.014951	98.824996	4.477170	0.136712	15.691229	11.513638	-25.971252	-42.825779	28.413785	6.403752	43.921795	29.586279	24.623695	3.958339	43.349883	28.126246	13.235907	-4.118827	51.069288	34.711620	1.178635	-7.742078	60.059714	41.449980
-0.825000	-160.147433	-5.066637	-73.570646	0.082365	-0.182595	-0.014955	98.805637	4.467556	0.150420	15.644867	11.527555	-25.968991	-42.828486	28.421226	6.401175	43.922771	29.583139	24.615136	3.958865	43.339752	28.125819	13.222611	-4.117839	51.067962	34.718798	1.149098	-7.744277	60.075158	41.471906
-0.815000	-160.147433	-5.066637	-73.570646	0.082368	-0.182586	-0.014956	98.805449	4.467773	0.160117	15.611630	11.515256	-25.965246	-42.843100	28.429615	6.401601	43.913764	29.572681	24.608818	3.961297	43.326337	28.122278	13.215303	-4.115887	51.065870	34.722406	1.134237	-7.744213	60.085068	41.483233
-0.805000	-160.147433	-5.066637	-73.570646	0.082372	-0.182575	-0.014954	98.824701	4.478095	0.164413	15.592208	11.485832	-25.962422	-42.864947	28.435461	6.404266	43.905473	29.562152	24.605676	3.965340	43.311979	28.116645	13.215942	-4.114100	51.064688	34.722400	1.135589	-7.741153	60.088256	41.482611
